<mxfile host="Electron" modified="2024-02-19T09:06:01.719Z" agent="Mozilla/5.0 (Windows NT 10.0; Win64; x64) AppleWebKit/537.36 (KHTML, like Gecko) draw.io/23.1.5 Chrome/120.0.6099.109 Electron/28.1.0 Safari/537.36" etag="HJX8IBlzJBqqG5Wm9OBD" version="23.1.5" type="device">
  <diagram name="Page-1" id="0ku43eFtBuvZWrbsRM51">
    <mxGraphModel dx="2050" dy="2193" grid="1" gridSize="10" guides="1" tooltips="1" connect="1" arrows="1" fold="1" page="1" pageScale="1" pageWidth="1400" pageHeight="850" math="0" shadow="0">
      <root>
        <mxCell id="0" />
        <mxCell id="1" parent="0" />
        <mxCell id="xai9NlU3XRkAmPuaHbtp-3" style="edgeStyle=none;curved=1;rounded=0;orthogonalLoop=1;jettySize=auto;html=1;entryX=0;entryY=0.5;entryDx=0;entryDy=0;fontSize=12;startSize=8;endSize=8;" edge="1" parent="1" source="xai9NlU3XRkAmPuaHbtp-1" target="xai9NlU3XRkAmPuaHbtp-2">
          <mxGeometry relative="1" as="geometry" />
        </mxCell>
        <mxCell id="xai9NlU3XRkAmPuaHbtp-1" value="&lt;font style=&quot;font-size: 20px;&quot;&gt;&lt;b&gt;START&lt;/b&gt;&lt;/font&gt;" style="rounded=1;whiteSpace=wrap;html=1;" vertex="1" parent="1">
          <mxGeometry x="40" y="360" width="160" height="80" as="geometry" />
        </mxCell>
        <mxCell id="xai9NlU3XRkAmPuaHbtp-5" style="edgeStyle=none;curved=1;rounded=0;orthogonalLoop=1;jettySize=auto;html=1;entryX=0;entryY=0.5;entryDx=0;entryDy=0;fontSize=12;startSize=8;endSize=8;" edge="1" parent="1" source="xai9NlU3XRkAmPuaHbtp-2" target="xai9NlU3XRkAmPuaHbtp-4">
          <mxGeometry relative="1" as="geometry" />
        </mxCell>
        <mxCell id="xai9NlU3XRkAmPuaHbtp-2" value="&lt;span style=&quot;font-size: 20px;&quot;&gt;Planning&lt;/span&gt;" style="rounded=1;whiteSpace=wrap;html=1;" vertex="1" parent="1">
          <mxGeometry x="280" y="360" width="160" height="80" as="geometry" />
        </mxCell>
        <mxCell id="xai9NlU3XRkAmPuaHbtp-12" style="edgeStyle=orthogonalEdgeStyle;rounded=0;orthogonalLoop=1;jettySize=auto;html=1;entryX=0;entryY=0.5;entryDx=0;entryDy=0;fontSize=12;startSize=8;endSize=8;" edge="1" parent="1" source="xai9NlU3XRkAmPuaHbtp-4" target="xai9NlU3XRkAmPuaHbtp-6">
          <mxGeometry relative="1" as="geometry" />
        </mxCell>
        <mxCell id="xai9NlU3XRkAmPuaHbtp-4" value="&lt;span style=&quot;font-size: 20px;&quot;&gt;Documentation&lt;/span&gt;" style="rounded=1;whiteSpace=wrap;html=1;" vertex="1" parent="1">
          <mxGeometry x="520" y="360" width="160" height="80" as="geometry" />
        </mxCell>
        <mxCell id="xai9NlU3XRkAmPuaHbtp-13" style="edgeStyle=none;curved=1;rounded=0;orthogonalLoop=1;jettySize=auto;html=1;entryX=0.5;entryY=0;entryDx=0;entryDy=0;fontSize=12;startSize=8;endSize=8;" edge="1" parent="1" source="xai9NlU3XRkAmPuaHbtp-6" target="xai9NlU3XRkAmPuaHbtp-7">
          <mxGeometry relative="1" as="geometry" />
        </mxCell>
        <mxCell id="xai9NlU3XRkAmPuaHbtp-6" value="&lt;span style=&quot;font-size: 20px;&quot;&gt;DB Design (Sprint 1)&lt;/span&gt;" style="rounded=1;whiteSpace=wrap;html=1;" vertex="1" parent="1">
          <mxGeometry x="800" y="120" width="160" height="80" as="geometry" />
        </mxCell>
        <mxCell id="xai9NlU3XRkAmPuaHbtp-14" style="edgeStyle=none;curved=1;rounded=0;orthogonalLoop=1;jettySize=auto;html=1;entryX=0.5;entryY=0;entryDx=0;entryDy=0;fontSize=12;startSize=8;endSize=8;" edge="1" parent="1" source="xai9NlU3XRkAmPuaHbtp-7" target="xai9NlU3XRkAmPuaHbtp-8">
          <mxGeometry relative="1" as="geometry" />
        </mxCell>
        <mxCell id="xai9NlU3XRkAmPuaHbtp-7" value="&lt;span style=&quot;font-size: 20px;&quot;&gt;Wireframe Design (Sprint 1)&lt;/span&gt;" style="rounded=1;whiteSpace=wrap;html=1;" vertex="1" parent="1">
          <mxGeometry x="800" y="280" width="160" height="80" as="geometry" />
        </mxCell>
        <mxCell id="xai9NlU3XRkAmPuaHbtp-15" style="edgeStyle=none;curved=1;rounded=0;orthogonalLoop=1;jettySize=auto;html=1;entryX=0.5;entryY=0;entryDx=0;entryDy=0;fontSize=12;startSize=8;endSize=8;" edge="1" parent="1" source="xai9NlU3XRkAmPuaHbtp-8" target="xai9NlU3XRkAmPuaHbtp-9">
          <mxGeometry relative="1" as="geometry" />
        </mxCell>
        <mxCell id="xai9NlU3XRkAmPuaHbtp-8" value="&lt;span style=&quot;font-size: 20px;&quot;&gt;Implementation (Sprint 1)&lt;/span&gt;" style="rounded=1;whiteSpace=wrap;html=1;" vertex="1" parent="1">
          <mxGeometry x="800" y="440" width="160" height="80" as="geometry" />
        </mxCell>
        <mxCell id="xai9NlU3XRkAmPuaHbtp-16" style="edgeStyle=none;curved=1;rounded=0;orthogonalLoop=1;jettySize=auto;html=1;entryX=0.5;entryY=0;entryDx=0;entryDy=0;fontSize=12;startSize=8;endSize=8;" edge="1" parent="1" source="xai9NlU3XRkAmPuaHbtp-9" target="xai9NlU3XRkAmPuaHbtp-11">
          <mxGeometry relative="1" as="geometry" />
        </mxCell>
        <mxCell id="xai9NlU3XRkAmPuaHbtp-9" value="&lt;span style=&quot;font-size: 20px;&quot;&gt;Quality Testing (Sprint 1)&lt;/span&gt;" style="rounded=1;whiteSpace=wrap;html=1;" vertex="1" parent="1">
          <mxGeometry x="800" y="600" width="160" height="80" as="geometry" />
        </mxCell>
        <mxCell id="xai9NlU3XRkAmPuaHbtp-24" style="edgeStyle=orthogonalEdgeStyle;rounded=0;orthogonalLoop=1;jettySize=auto;html=1;entryX=0;entryY=0.5;entryDx=0;entryDy=0;fontSize=12;startSize=8;endSize=8;" edge="1" parent="1" source="xai9NlU3XRkAmPuaHbtp-11" target="xai9NlU3XRkAmPuaHbtp-17">
          <mxGeometry relative="1" as="geometry" />
        </mxCell>
        <mxCell id="xai9NlU3XRkAmPuaHbtp-11" value="&lt;span style=&quot;font-size: 20px;&quot;&gt;Validating Functions &lt;br&gt;(Sprint 1)&lt;/span&gt;" style="rounded=1;whiteSpace=wrap;html=1;" vertex="1" parent="1">
          <mxGeometry x="800" y="760" width="160" height="120" as="geometry" />
        </mxCell>
        <mxCell id="xai9NlU3XRkAmPuaHbtp-21" style="edgeStyle=none;curved=1;rounded=0;orthogonalLoop=1;jettySize=auto;html=1;entryX=0.5;entryY=0;entryDx=0;entryDy=0;fontSize=12;startSize=8;endSize=8;" edge="1" parent="1" source="xai9NlU3XRkAmPuaHbtp-17" target="xai9NlU3XRkAmPuaHbtp-18">
          <mxGeometry relative="1" as="geometry" />
        </mxCell>
        <mxCell id="xai9NlU3XRkAmPuaHbtp-17" value="&lt;span style=&quot;font-size: 20px;&quot;&gt;Move Related Stories to the Sprint Backlog (Sprint 2)&lt;/span&gt;" style="rounded=1;whiteSpace=wrap;html=1;" vertex="1" parent="1">
          <mxGeometry x="1080" y="120" width="160" height="120" as="geometry" />
        </mxCell>
        <mxCell id="xai9NlU3XRkAmPuaHbtp-22" style="edgeStyle=none;curved=1;rounded=0;orthogonalLoop=1;jettySize=auto;html=1;entryX=0.5;entryY=0;entryDx=0;entryDy=0;fontSize=12;startSize=8;endSize=8;" edge="1" parent="1" source="xai9NlU3XRkAmPuaHbtp-18" target="xai9NlU3XRkAmPuaHbtp-19">
          <mxGeometry relative="1" as="geometry" />
        </mxCell>
        <mxCell id="xai9NlU3XRkAmPuaHbtp-18" value="&lt;span style=&quot;font-size: 20px;&quot;&gt;Designs UIs (Sprint 2)&lt;/span&gt;" style="rounded=1;whiteSpace=wrap;html=1;" vertex="1" parent="1">
          <mxGeometry x="1080" y="320" width="160" height="80" as="geometry" />
        </mxCell>
        <mxCell id="xai9NlU3XRkAmPuaHbtp-23" style="edgeStyle=none;curved=1;rounded=0;orthogonalLoop=1;jettySize=auto;html=1;entryX=0.5;entryY=0;entryDx=0;entryDy=0;fontSize=12;startSize=8;endSize=8;" edge="1" parent="1" source="xai9NlU3XRkAmPuaHbtp-19" target="xai9NlU3XRkAmPuaHbtp-20">
          <mxGeometry relative="1" as="geometry" />
        </mxCell>
        <mxCell id="xai9NlU3XRkAmPuaHbtp-19" value="&lt;span style=&quot;font-size: 20px;&quot;&gt;Implementation (Sprint 2)&lt;/span&gt;" style="rounded=1;whiteSpace=wrap;html=1;" vertex="1" parent="1">
          <mxGeometry x="1080" y="480" width="160" height="80" as="geometry" />
        </mxCell>
        <mxCell id="xai9NlU3XRkAmPuaHbtp-30" style="edgeStyle=orthogonalEdgeStyle;rounded=0;orthogonalLoop=1;jettySize=auto;html=1;entryX=0;entryY=0.5;entryDx=0;entryDy=0;fontSize=12;startSize=8;endSize=8;" edge="1" parent="1" source="xai9NlU3XRkAmPuaHbtp-20" target="xai9NlU3XRkAmPuaHbtp-25">
          <mxGeometry relative="1" as="geometry" />
        </mxCell>
        <mxCell id="xai9NlU3XRkAmPuaHbtp-20" value="&lt;span style=&quot;font-size: 20px;&quot;&gt;Testing&lt;br&gt;(Sprint 2)&lt;/span&gt;" style="rounded=1;whiteSpace=wrap;html=1;" vertex="1" parent="1">
          <mxGeometry x="1080" y="640" width="160" height="80" as="geometry" />
        </mxCell>
        <mxCell id="xai9NlU3XRkAmPuaHbtp-28" style="edgeStyle=none;curved=1;rounded=0;orthogonalLoop=1;jettySize=auto;html=1;entryX=0.5;entryY=0;entryDx=0;entryDy=0;fontSize=12;startSize=8;endSize=8;" edge="1" parent="1" source="xai9NlU3XRkAmPuaHbtp-25" target="xai9NlU3XRkAmPuaHbtp-26">
          <mxGeometry relative="1" as="geometry" />
        </mxCell>
        <mxCell id="xai9NlU3XRkAmPuaHbtp-25" value="&lt;span style=&quot;font-size: 20px;&quot;&gt;Move Related Stories to the Sprint Backlog (Sprint 3)&lt;/span&gt;" style="rounded=1;whiteSpace=wrap;html=1;" vertex="1" parent="1">
          <mxGeometry x="1360" y="120" width="160" height="120" as="geometry" />
        </mxCell>
        <mxCell id="xai9NlU3XRkAmPuaHbtp-29" style="edgeStyle=none;curved=1;rounded=0;orthogonalLoop=1;jettySize=auto;html=1;entryX=0.5;entryY=0;entryDx=0;entryDy=0;fontSize=12;startSize=8;endSize=8;" edge="1" parent="1" source="xai9NlU3XRkAmPuaHbtp-26" target="xai9NlU3XRkAmPuaHbtp-27">
          <mxGeometry relative="1" as="geometry" />
        </mxCell>
        <mxCell id="xai9NlU3XRkAmPuaHbtp-26" value="&lt;span style=&quot;font-size: 20px;&quot;&gt;Implementation (Sprint 3)&lt;/span&gt;" style="rounded=1;whiteSpace=wrap;html=1;" vertex="1" parent="1">
          <mxGeometry x="1360" y="320" width="160" height="80" as="geometry" />
        </mxCell>
        <mxCell id="xai9NlU3XRkAmPuaHbtp-38" style="edgeStyle=orthogonalEdgeStyle;rounded=0;orthogonalLoop=1;jettySize=auto;html=1;entryX=0;entryY=0.5;entryDx=0;entryDy=0;fontSize=12;startSize=8;endSize=8;" edge="1" parent="1" source="xai9NlU3XRkAmPuaHbtp-27" target="xai9NlU3XRkAmPuaHbtp-31">
          <mxGeometry relative="1" as="geometry" />
        </mxCell>
        <mxCell id="xai9NlU3XRkAmPuaHbtp-27" value="&lt;span style=&quot;font-size: 20px;&quot;&gt;Intergration Testing (Sprint 3)&lt;/span&gt;" style="rounded=1;whiteSpace=wrap;html=1;" vertex="1" parent="1">
          <mxGeometry x="1360" y="480" width="160" height="80" as="geometry" />
        </mxCell>
        <mxCell id="xai9NlU3XRkAmPuaHbtp-35" style="edgeStyle=none;curved=1;rounded=0;orthogonalLoop=1;jettySize=auto;html=1;entryX=0.5;entryY=0;entryDx=0;entryDy=0;fontSize=12;startSize=8;endSize=8;" edge="1" parent="1" source="xai9NlU3XRkAmPuaHbtp-31" target="xai9NlU3XRkAmPuaHbtp-32">
          <mxGeometry relative="1" as="geometry" />
        </mxCell>
        <mxCell id="xai9NlU3XRkAmPuaHbtp-31" value="&lt;span style=&quot;font-size: 20px;&quot;&gt;Move Related Stories to the Sprint Backlog (Sprint 4)&lt;/span&gt;" style="rounded=1;whiteSpace=wrap;html=1;" vertex="1" parent="1">
          <mxGeometry x="1640" y="120" width="160" height="120" as="geometry" />
        </mxCell>
        <mxCell id="xai9NlU3XRkAmPuaHbtp-36" style="edgeStyle=none;curved=1;rounded=0;orthogonalLoop=1;jettySize=auto;html=1;entryX=0.5;entryY=0;entryDx=0;entryDy=0;fontSize=12;startSize=8;endSize=8;" edge="1" parent="1" source="xai9NlU3XRkAmPuaHbtp-32" target="xai9NlU3XRkAmPuaHbtp-33">
          <mxGeometry relative="1" as="geometry" />
        </mxCell>
        <mxCell id="xai9NlU3XRkAmPuaHbtp-32" value="&lt;span style=&quot;font-size: 20px;&quot;&gt;Implementation (Sprint 4)&lt;/span&gt;" style="rounded=1;whiteSpace=wrap;html=1;" vertex="1" parent="1">
          <mxGeometry x="1640" y="320" width="160" height="80" as="geometry" />
        </mxCell>
        <mxCell id="xai9NlU3XRkAmPuaHbtp-37" style="edgeStyle=none;curved=1;rounded=0;orthogonalLoop=1;jettySize=auto;html=1;entryX=0.5;entryY=0;entryDx=0;entryDy=0;fontSize=12;startSize=8;endSize=8;" edge="1" parent="1" source="xai9NlU3XRkAmPuaHbtp-33" target="xai9NlU3XRkAmPuaHbtp-34">
          <mxGeometry relative="1" as="geometry" />
        </mxCell>
        <mxCell id="xai9NlU3XRkAmPuaHbtp-33" value="&lt;font style=&quot;font-size: 20px;&quot;&gt;Synchronization&lt;/font&gt;&lt;span style=&quot;font-size: 20px;&quot;&gt;&amp;nbsp;&lt;br&gt;Testing (Sprint 4)&lt;/span&gt;" style="rounded=1;whiteSpace=wrap;html=1;" vertex="1" parent="1">
          <mxGeometry x="1640" y="480" width="160" height="80" as="geometry" />
        </mxCell>
        <mxCell id="xai9NlU3XRkAmPuaHbtp-54" style="edgeStyle=none;curved=1;rounded=0;orthogonalLoop=1;jettySize=auto;html=1;entryX=0.5;entryY=0;entryDx=0;entryDy=0;fontSize=12;startSize=8;endSize=8;" edge="1" parent="1" source="xai9NlU3XRkAmPuaHbtp-34" target="xai9NlU3XRkAmPuaHbtp-53">
          <mxGeometry relative="1" as="geometry" />
        </mxCell>
        <mxCell id="xai9NlU3XRkAmPuaHbtp-34" value="&lt;span style=&quot;font-size: 20px;&quot;&gt;Intergration Testing (Sprint 4)&lt;/span&gt;" style="rounded=1;whiteSpace=wrap;html=1;" vertex="1" parent="1">
          <mxGeometry x="1640" y="640" width="160" height="80" as="geometry" />
        </mxCell>
        <mxCell id="xai9NlU3XRkAmPuaHbtp-44" style="edgeStyle=none;curved=1;rounded=0;orthogonalLoop=1;jettySize=auto;html=1;fontSize=12;startSize=8;endSize=8;" edge="1" parent="1" source="xai9NlU3XRkAmPuaHbtp-39" target="xai9NlU3XRkAmPuaHbtp-40">
          <mxGeometry relative="1" as="geometry" />
        </mxCell>
        <mxCell id="xai9NlU3XRkAmPuaHbtp-39" value="&lt;span style=&quot;font-size: 20px;&quot;&gt;Move Related Stories to the Sprint Backlog (Sprint 5)&lt;/span&gt;" style="rounded=1;whiteSpace=wrap;html=1;" vertex="1" parent="1">
          <mxGeometry x="1920" y="120" width="160" height="120" as="geometry" />
        </mxCell>
        <mxCell id="xai9NlU3XRkAmPuaHbtp-45" style="edgeStyle=none;curved=1;rounded=0;orthogonalLoop=1;jettySize=auto;html=1;entryX=0.5;entryY=0;entryDx=0;entryDy=0;fontSize=12;startSize=8;endSize=8;" edge="1" parent="1" source="xai9NlU3XRkAmPuaHbtp-40" target="xai9NlU3XRkAmPuaHbtp-41">
          <mxGeometry relative="1" as="geometry" />
        </mxCell>
        <mxCell id="xai9NlU3XRkAmPuaHbtp-40" value="&lt;span style=&quot;font-size: 20px;&quot;&gt;Implementation (Sprint 5)&lt;/span&gt;" style="rounded=1;whiteSpace=wrap;html=1;" vertex="1" parent="1">
          <mxGeometry x="1920" y="320" width="160" height="80" as="geometry" />
        </mxCell>
        <mxCell id="xai9NlU3XRkAmPuaHbtp-46" style="edgeStyle=none;curved=1;rounded=0;orthogonalLoop=1;jettySize=auto;html=1;entryX=0.5;entryY=0;entryDx=0;entryDy=0;fontSize=12;startSize=8;endSize=8;" edge="1" parent="1" source="xai9NlU3XRkAmPuaHbtp-41" target="xai9NlU3XRkAmPuaHbtp-42">
          <mxGeometry relative="1" as="geometry" />
        </mxCell>
        <mxCell id="xai9NlU3XRkAmPuaHbtp-41" value="&lt;span style=&quot;font-size: 20px;&quot;&gt;Merge Functions (Sprint 5)&lt;/span&gt;" style="rounded=1;whiteSpace=wrap;html=1;" vertex="1" parent="1">
          <mxGeometry x="1920" y="480" width="160" height="80" as="geometry" />
        </mxCell>
        <mxCell id="xai9NlU3XRkAmPuaHbtp-47" style="edgeStyle=none;curved=1;rounded=0;orthogonalLoop=1;jettySize=auto;html=1;entryX=0.5;entryY=0;entryDx=0;entryDy=0;fontSize=12;startSize=8;endSize=8;" edge="1" parent="1" source="xai9NlU3XRkAmPuaHbtp-42" target="xai9NlU3XRkAmPuaHbtp-43">
          <mxGeometry relative="1" as="geometry" />
        </mxCell>
        <mxCell id="xai9NlU3XRkAmPuaHbtp-42" value="&lt;span style=&quot;font-size: 20px;&quot;&gt;Quality Testing (Sprint 5)&lt;/span&gt;" style="rounded=1;whiteSpace=wrap;html=1;" vertex="1" parent="1">
          <mxGeometry x="1920" y="640" width="160" height="80" as="geometry" />
        </mxCell>
        <mxCell id="xai9NlU3XRkAmPuaHbtp-51" style="edgeStyle=none;curved=1;rounded=0;orthogonalLoop=1;jettySize=auto;html=1;entryX=0;entryY=0.5;entryDx=0;entryDy=0;fontSize=12;startSize=8;endSize=8;" edge="1" parent="1" source="xai9NlU3XRkAmPuaHbtp-43" target="xai9NlU3XRkAmPuaHbtp-50">
          <mxGeometry relative="1" as="geometry" />
        </mxCell>
        <mxCell id="xai9NlU3XRkAmPuaHbtp-43" value="&lt;span style=&quot;font-size: 20px;&quot;&gt;UAT (Sprint 5)&lt;/span&gt;" style="rounded=1;whiteSpace=wrap;html=1;" vertex="1" parent="1">
          <mxGeometry x="1920" y="800" width="160" height="80" as="geometry" />
        </mxCell>
        <mxCell id="xai9NlU3XRkAmPuaHbtp-49" value="&lt;span style=&quot;font-size: 20px;&quot;&gt;&lt;b&gt;END&lt;/b&gt;&lt;/span&gt;" style="rounded=1;whiteSpace=wrap;html=1;" vertex="1" parent="1">
          <mxGeometry x="2200" y="640" width="160" height="80" as="geometry" />
        </mxCell>
        <mxCell id="xai9NlU3XRkAmPuaHbtp-52" style="edgeStyle=none;curved=1;rounded=0;orthogonalLoop=1;jettySize=auto;html=1;entryX=0.5;entryY=1;entryDx=0;entryDy=0;fontSize=12;startSize=8;endSize=8;" edge="1" parent="1" source="xai9NlU3XRkAmPuaHbtp-50" target="xai9NlU3XRkAmPuaHbtp-49">
          <mxGeometry relative="1" as="geometry" />
        </mxCell>
        <mxCell id="xai9NlU3XRkAmPuaHbtp-50" value="&lt;span style=&quot;font-size: 20px;&quot;&gt;Hosting the Final Project (Sprint 5)&lt;/span&gt;" style="rounded=1;whiteSpace=wrap;html=1;" vertex="1" parent="1">
          <mxGeometry x="2200" y="800" width="160" height="80" as="geometry" />
        </mxCell>
        <mxCell id="xai9NlU3XRkAmPuaHbtp-55" style="edgeStyle=orthogonalEdgeStyle;rounded=0;orthogonalLoop=1;jettySize=auto;html=1;entryX=0;entryY=0.5;entryDx=0;entryDy=0;fontSize=12;startSize=8;endSize=8;" edge="1" parent="1" source="xai9NlU3XRkAmPuaHbtp-53" target="xai9NlU3XRkAmPuaHbtp-39">
          <mxGeometry relative="1" as="geometry" />
        </mxCell>
        <mxCell id="xai9NlU3XRkAmPuaHbtp-53" value="&lt;span style=&quot;font-size: 20px;&quot;&gt;Demo to the Client&lt;/span&gt;" style="rounded=1;whiteSpace=wrap;html=1;" vertex="1" parent="1">
          <mxGeometry x="1640" y="800" width="160" height="80" as="geometry" />
        </mxCell>
      </root>
    </mxGraphModel>
  </diagram>
</mxfile>
